# This file uses centimeters as units for non-parametric coordinates.

mtllib dotbox2.mtl
g default
v -2.500000 -2.250025 2.250025
v -2.426784 -2.426784 2.250025
v -2.250025 -2.500000 2.250025
v -2.250025 -2.426784 2.426784
v -2.250025 -2.250025 2.500000
v -2.426784 -2.250025 2.426784
v 2.250025 -2.500000 2.250025
v 2.426784 -2.426784 2.250025
v 2.500000 -2.250025 2.250025
v 2.426784 -2.250025 2.426784
v 2.250025 -2.250025 2.500000
v 2.250025 -2.426784 2.426784
v -2.250025 2.500000 2.250025
v -2.426784 2.426784 2.250025
v -2.500000 2.250025 2.250025
v -2.426784 2.250025 2.426784
v -2.250025 2.250025 2.500000
v -2.250025 2.426784 2.426784
v 2.500000 2.250025 2.250025
v 2.426784 2.426784 2.250025
v 2.250025 2.500000 2.250025
v 2.250025 2.426784 2.426784
v 2.250025 2.250025 2.500000
v 2.426784 2.250025 2.426784
v -2.250025 2.250025 -2.500000
v -2.426784 2.250025 -2.426784
v -2.500000 2.250025 -2.250025
v -2.426784 2.426784 -2.250025
v -2.250025 2.500000 -2.250025
v -2.250025 2.426784 -2.426784
v 2.500000 2.250025 -2.250025
v 2.426784 2.250025 -2.426784
v 2.250025 2.250025 -2.500000
v 2.250025 2.426784 -2.426784
v 2.250025 2.500000 -2.250025
v 2.426784 2.426784 -2.250025
v -2.250025 -2.500000 -2.250025
v -2.426784 -2.426784 -2.250025
v -2.500000 -2.250025 -2.250025
v -2.426784 -2.250025 -2.426784
v -2.250025 -2.250025 -2.500000
v -2.250025 -2.426784 -2.426784
v 2.500000 -2.250025 -2.250025
v 2.426784 -2.426784 -2.250025
v 2.250025 -2.500000 -2.250025
v 2.250025 -2.426784 -2.426784
v 2.250025 -2.250025 -2.500000
v 2.426784 -2.250025 -2.426784
v -2.392270 -2.392270 2.392270
v 2.392270 -2.392270 2.392270
v -2.392270 2.392270 2.392270
v 2.392270 2.392270 2.392270
v -2.392270 2.392270 -2.392270
v 2.392270 2.392270 -2.392270
v -2.392270 -2.392270 -2.392270
v 2.392270 -2.392270 -2.392270
v 0.000000 -2.500000 -2.250025
v 0.000000 -2.500000 2.250025
v 0.000000 2.250025 2.500000
v 0.000000 -2.250025 2.500000
v 0.000000 2.500000 -2.250025
v 0.000000 2.500000 2.250025
v 0.000000 -2.250025 -2.500000
v 0.000000 2.250025 -2.500000
v 0.000000 -2.426784 2.426784
v 0.000000 2.426784 2.426784
v 0.000000 2.426784 -2.426784
v 0.000000 -2.426784 -2.426784
vt 0.349128 0.378452
vt 0.363875 0.692786
vt 0.994269 0.025642
vt 0.024900 0.359982
vt 0.659793 0.708038
vt 0.679391 0.708039
vt 0.685461 0.007503
vt 0.994249 0.375380
vt 0.011341 0.678548
vt 0.977385 0.340292
vt 0.977385 0.356452
vt 0.685461 0.356452
vt 0.659792 0.978944
vt 0.659793 0.991433
vt 0.365485 0.007500
vt 0.651159 0.025448
vt 0.668485 0.025471
vt 0.685461 0.340291
vt 0.668485 0.340292
vt 0.651146 0.340292
vt 0.651146 0.356451
vt 0.668485 0.658627
vt 0.363685 0.979015
vt 0.349129 0.978823
vt 0.349129 0.708581
vt 0.336250 0.978632
vt 0.336250 0.991183
vt 0.365488 0.340292
vt 0.349604 0.340292
vt 0.024899 0.978884
vt 0.011341 0.978608
vt 0.977385 0.658627
vt 0.977385 0.673278
vt 0.336250 0.678729
vt 0.336250 0.693390
vt 0.024899 0.708089
vt 0.024899 0.692713
vt 0.659793 0.692673
vt 0.679380 0.693034
vt 0.336250 0.378427
vt 0.994238 0.673278
vt 0.349129 0.359993
vt 0.977386 0.025587
vt 0.977386 0.007505
vt 0.011341 0.692921
vt 0.024901 0.377621
vt 0.011344 0.377596
vt 0.011344 0.359982
vt 0.977385 0.375380
vt 0.668485 0.673277
vt 0.994236 0.356452
vt 0.349129 0.678737
vt 0.349605 0.356452
vt 0.024899 0.678555
vt 0.679380 0.991430
vt 0.679386 0.978945
vt 0.994235 0.658627
vt 0.685461 0.025497
vt 0.685461 0.673277
vt 0.668485 0.007502
vt 0.685461 0.375368
vt 0.668485 0.375368
vt 0.668485 0.356452
vt 0.011341 0.708662
vt 0.651152 0.007501
vt 0.363639 0.991491
vt 0.349604 0.007498
vt 0.363874 0.708185
vt 0.349129 0.991247
vt 0.349129 0.693273
vt 0.024899 0.991385
vt 0.365482 0.025421
vt 0.349603 0.025421
vt 0.365488 0.356451
vt 0.685461 0.658627
vt 0.336250 0.708977
vt 0.011341 0.990981
vt 0.994270 0.007508
vt 0.994239 0.340291
vt 0.336250 0.359993
vt 0.180575 0.678642
vt 0.180575 0.378024
vt 0.685461 0.182894
vt 0.977385 0.182939
vt 0.365485 0.182857
vt 0.651152 0.182870
vt 0.180575 0.708533
vt 0.180575 0.978758
vt 0.994254 0.182967
vt 0.180575 0.359987
vt 0.668485 0.182881
vt 0.180575 0.991284
vt 0.349603 0.182857
vt 0.180575 0.693052
vn -0.029796 -0.999439 -0.015279
vn 0.000000 -0.999878 -0.015653
vn -0.029796 -0.999439 0.015279
vn 0.000000 -0.999878 0.015653
vn 0.029796 -0.999439 -0.015279
vn 0.029796 -0.999439 0.015279
vn 0.029796 -0.015279 0.999439
vn 0.029796 0.015279 0.999439
vn 0.000000 -0.015653 0.999878
vn 0.000000 0.015653 0.999878
vn -0.029796 0.015279 0.999439
vn -0.029796 -0.015279 0.999439
vn -0.999761 0.015461 0.015461
vn -0.999761 0.015461 -0.015461
vn -0.999761 -0.015461 0.015461
vn -0.999761 -0.015461 -0.015461
vn 0.999761 -0.015461 -0.015461
vn 0.999761 0.015461 -0.015461
vn 0.999761 -0.015461 0.015461
vn 0.999761 0.015461 0.015461
vn 0.029796 0.999439 0.015279
vn 0.029796 0.999439 -0.015279
vn 0.000000 0.999878 0.015653
vn 0.000000 0.999878 -0.015653
vn -0.029796 0.999439 -0.015279
vn -0.029796 0.999439 0.015279
vn 0.029796 0.015279 -0.999439
vn 0.029796 -0.015279 -0.999439
vn 0.000000 0.015653 -0.999878
vn 0.000000 -0.015653 -0.999878
vn -0.029796 -0.015279 -0.999439
vn -0.029796 0.015279 -0.999439
vn -0.382668 -0.923843 0.008965
vn -0.382668 -0.923842 -0.008965
vn -0.923843 -0.382668 0.008965
vn -0.923843 -0.382668 -0.008965
vn -0.017435 -0.382625 0.923739
vn 0.000000 -0.382684 0.923879
vn 0.017435 -0.382625 0.923739
vn -0.017436 -0.923739 0.382625
vn 0.000000 -0.923880 0.382683
vn 0.017436 -0.923739 0.382625
vn -0.923843 -0.008965 0.382668
vn -0.923842 0.008965 0.382668
vn -0.382668 -0.008965 0.923843
vn -0.382668 0.008965 0.923843
vn 0.923843 -0.382668 0.008965
vn 0.923843 -0.382668 -0.008965
vn 0.382668 -0.923842 0.008965
vn 0.382668 -0.923843 -0.008965
vn 0.382668 -0.008965 0.923843
vn 0.382668 0.008965 0.923843
vn 0.923842 -0.008965 0.382668
vn 0.923843 0.008965 0.382668
vn -0.923843 0.382668 0.008965
vn -0.923843 0.382668 -0.008965
vn -0.382668 0.923842 0.008965
vn -0.382668 0.923843 -0.008965
vn -0.017436 0.923739 0.382625
vn 0.000000 0.923880 0.382683
vn 0.017436 0.923739 0.382625
vn -0.017435 0.382625 0.923739
vn 0.000000 0.382684 0.923879
vn 0.017435 0.382625 0.923739
vn 0.382668 0.923843 0.008965
vn 0.382668 0.923842 -0.008965
vn 0.923843 0.382668 0.008965
vn 0.923843 0.382668 -0.008965
vn -0.923843 0.008965 -0.382668
vn -0.923842 -0.008965 -0.382668
vn -0.382668 0.008965 -0.923843
vn -0.382668 -0.008965 -0.923843
vn -0.017435 0.382625 -0.923739
vn 0.000000 0.382684 -0.923879
vn 0.017435 0.382625 -0.923739
vn -0.017436 0.923739 -0.382625
vn 0.000000 0.923880 -0.382683
vn 0.017436 0.923739 -0.382625
vn 0.382668 0.008965 -0.923843
vn 0.382668 -0.008965 -0.923843
vn 0.923842 0.008965 -0.382668
vn 0.923843 -0.008965 -0.382668
vn -0.017436 -0.923739 -0.382625
vn 0.000000 -0.923880 -0.382683
vn 0.017436 -0.923739 -0.382625
vn -0.017435 -0.382625 -0.923739
vn 0.000000 -0.382684 -0.923879
vn 0.017435 -0.382625 -0.923739
vn -0.881546 -0.333824 0.333824
vn -0.333824 -0.881546 0.333824
vn -0.333824 -0.333824 0.881546
vn 0.333824 -0.881546 0.333824
vn 0.881546 -0.333824 0.333824
vn 0.333824 -0.333824 0.881546
vn -0.333824 0.881546 0.333824
vn -0.881546 0.333824 0.333824
vn -0.333824 0.333824 0.881546
vn 0.881546 0.333824 0.333824
vn 0.333824 0.881546 0.333824
vn 0.333824 0.333824 0.881546
vn -0.333824 0.333824 -0.881546
vn -0.881546 0.333824 -0.333824
vn -0.333824 0.881546 -0.333824
vn 0.881546 0.333824 -0.333824
vn 0.333824 0.333824 -0.881546
vn 0.333824 0.881546 -0.333824
vn -0.333824 -0.881546 -0.333824
vn -0.881546 -0.333824 -0.333824
vn -0.333824 -0.333824 -0.881546
vn 0.881546 -0.333824 -0.333824
vn 0.333824 -0.881546 -0.333824
vn 0.333824 -0.333824 -0.881546
s 1
g pCube1
usemtl lambert2SG
f 37/34/1 57/81/2 3/40/3
f 3/40/3 57/81/2 58/82/4
f 57/81/2 45/54/5 58/82/4
f 45/54/5 7/46/6 58/82/4
s 2
f 11/10/7 23/18/8 60/84/9
f 23/18/8 59/83/10 60/84/9
f 59/83/10 17/58/11 60/84/9
f 17/58/11 5/43/12 60/84/9
s 3
f 15/13/13 27/23/14 1/5/15
f 1/5/15 27/23/14 39/68/16
s 4
f 43/32/17 31/75/18 9/49/19
f 9/49/19 31/75/18 19/61/20
s 5
f 21/20/21 35/28/22 62/86/23
f 35/28/22 61/85/24 62/86/23
f 61/85/24 29/72/25 62/86/23
f 29/72/25 13/16/26 62/86/23
s 6
f 33/30/27 47/36/28 64/88/29
f 47/36/28 63/87/30 64/88/29
f 63/87/30 41/76/31 64/88/29
f 41/76/31 25/26/32 64/88/29
s 1
f 3/40/3 2/1/33 37/34/1
f 37/34/1 2/1/33 38/52/34
s 3
f 2/38/35 1/5/15 38/2/36
f 38/2/36 1/5/15 39/68/16
s 2
f 5/43/12 4/3/37 60/84/9
f 4/3/37 65/89/38 60/84/9
f 65/89/38 12/79/39 60/84/9
f 12/79/39 11/10/7 60/84/9
s 1
f 3/40/3 58/82/4 4/80/40
f 4/80/40 58/82/4 65/90/41
f 7/46/6 12/4/42 58/82/4
f 58/82/4 12/4/42 65/90/41
s 3
f 1/5/15 6/6/43 15/13/13
f 15/13/13 6/6/43 16/56/44
s 2
f 6/44/45 5/43/12 16/7/46
f 16/7/46 5/43/12 17/58/11
s 4
f 9/49/19 8/8/47 43/32/17
f 43/32/17 8/8/47 44/57/48
s 1
f 8/47/49 7/46/6 44/9/50
f 44/9/50 7/46/6 45/54/5
s 2
f 11/10/7 10/11/51 23/18/8
f 23/18/8 10/11/51 24/12/52
s 4
f 10/11/53 9/49/19 24/12/54
f 24/12/54 9/49/19 19/61/20
s 3
f 15/13/13 14/14/55 27/23/14
f 27/23/14 14/14/55 28/66/56
s 5
f 14/65/57 13/16/26 28/15/58
f 28/15/58 13/16/26 29/72/25
f 13/16/26 18/17/59 62/86/23
f 18/17/59 66/91/60 62/86/23
f 66/91/60 22/19/61 62/86/23
f 22/19/61 21/20/21 62/86/23
s 2
f 17/58/11 59/83/10 18/17/62
f 18/17/62 59/83/10 66/91/63
f 23/18/8 22/19/64 59/83/10
f 59/83/10 22/19/64 66/91/63
s 5
f 21/20/21 20/21/65 35/28/22
f 35/28/22 20/21/65 36/74/66
s 4
f 20/62/67 19/61/20 36/22/68
f 36/22/68 19/61/20 31/75/18
s 3
f 27/23/14 26/24/69 39/68/16
f 39/68/16 26/24/69 40/25/70
s 6
f 26/24/71 25/26/32 40/25/72
f 40/25/72 25/26/32 41/76/31
f 25/26/32 30/27/73 64/88/29
f 30/27/73 67/92/74 64/88/29
f 67/92/74 34/71/75 64/88/29
f 34/71/75 33/30/27 64/88/29
s 5
f 29/72/25 61/85/24 30/73/76
f 30/73/76 61/85/24 67/93/77
f 35/28/22 34/29/78 61/85/24
f 61/85/24 34/29/78 67/93/77
s 6
f 33/30/27 32/31/79 47/36/28
f 47/36/28 32/31/79 48/64/80
s 4
f 32/59/81 31/75/18 48/33/82
f 48/33/82 31/75/18 43/32/17
s 1
f 37/34/1 42/35/83 57/81/2
f 42/35/83 68/94/84 57/81/2
f 68/94/84 46/37/85 57/81/2
f 46/37/85 45/54/5 57/81/2
s 6
f 41/76/31 63/87/30 42/35/86
f 42/35/86 63/87/30 68/94/87
f 47/36/28 46/37/88 63/87/30
f 63/87/30 46/37/88 68/94/87
s 3
f 6/6/43 1/5/15 49/39/89
f 49/39/89 1/5/15 2/38/35
s 1
f 2/1/33 3/40/3 49/42/90
f 49/42/90 3/40/3 4/80/40
s 2
f 4/3/37 5/43/12 49/78/91
f 49/78/91 5/43/12 6/44/45
s 1
f 12/4/42 7/46/6 50/48/92
f 50/48/92 7/46/6 8/47/49
s 4
f 8/8/47 9/49/19 50/51/93
f 50/51/93 9/49/19 10/11/53
s 2
f 10/11/51 11/10/7 50/51/94
f 50/51/94 11/10/7 12/79/39
s 5
f 18/17/59 13/16/26 51/60/95
f 51/60/95 13/16/26 14/65/57
s 3
f 14/14/55 15/13/13 51/55/96
f 51/55/96 15/13/13 16/56/44
s 2
f 16/7/46 17/58/11 51/60/97
f 51/60/97 17/58/11 18/17/62
s 4
f 24/12/54 19/61/20 52/63/98
f 52/63/98 19/61/20 20/62/67
s 5
f 20/21/65 21/20/21 52/63/99
f 52/63/99 21/20/21 22/19/61
s 2
f 22/19/64 23/18/8 52/63/100
f 52/63/100 23/18/8 24/12/52
s 6
f 30/27/73 25/26/32 53/69/101
f 53/69/101 25/26/32 26/24/71
s 3
f 26/24/69 27/23/14 53/69/102
f 53/69/102 27/23/14 28/66/56
s 5
f 28/15/58 29/72/25 53/67/103
f 53/67/103 29/72/25 30/73/76
s 4
f 36/22/68 31/75/18 54/50/104
f 54/50/104 31/75/18 32/59/81
s 6
f 32/31/79 33/30/27 54/77/105
f 54/77/105 33/30/27 34/71/75
s 5
f 34/29/78 35/28/22 54/53/106
f 54/53/106 35/28/22 36/74/66
s 1
f 42/35/83 37/34/1 55/70/107
f 55/70/107 37/34/1 38/52/34
s 3
f 38/2/36 39/68/16 55/70/108
f 55/70/108 39/68/16 40/25/70
s 6
f 40/25/72 41/76/31 55/70/109
f 55/70/109 41/76/31 42/35/86
s 4
f 48/33/82 43/32/17 56/41/110
f 56/41/110 43/32/17 44/57/48
s 1
f 44/9/50 45/54/5 56/45/111
f 56/45/111 45/54/5 46/37/85
s 6
f 46/37/88 47/36/28 56/45/112
f 56/45/112 47/36/28 48/64/80
