# This file uses centimeters as units for non-parametric coordinates.

mtllib side_bottom.mtl
g default
v -2.384959 -2.384958 2.219965
v -2.208200 -2.458175 2.219965
v -2.208200 -2.384958 2.396724
v 2.272939 -2.462078 2.219965
v 2.447077 -2.382830 2.219965
v 2.270422 -2.388906 2.396724
v -2.208200 -2.458175 -2.280085
v -2.384959 -2.384958 -2.280085
v -2.208200 -2.384958 -2.456844
v 2.411034 -2.341110 -2.248432
v 2.236896 -2.420359 -2.248432
v 2.234380 -2.347186 -2.425191
v -2.350444 -2.350444 2.362209
v 2.411397 -2.349522 2.362209
v -2.350444 -2.350444 -2.422330
v 2.375354 -2.307802 -2.390676
v 0.000000 -2.500000 -2.280085
v 0.000000 -2.500000 2.219965
v 0.000000 -2.426784 2.396724
v 0.000000 -2.426784 -2.456844
v -1.223400 -2.500000 -2.280085
v -1.223400 -2.426784 2.396724
v -1.223400 -2.426784 -2.456844
v -1.223400 -2.500000 2.219965
v 1.244313 -2.500000 2.219965
v 1.244313 -2.500000 -2.280085
v 1.244313 -2.426784 2.396724
v 1.244313 -2.426784 -2.456844
v 2.272939 -2.462078 0.013032
v -2.208200 -2.458175 0.013032
v -2.384959 -2.384958 0.013032
v 2.447077 -2.382830 0.013032
v 0.000000 -2.500000 0.013032
v -1.223400 -2.500000 0.013032
v 1.244313 -2.500000 0.013032
v -2.208200 -2.458175 1.185925
v -2.384959 -2.384958 1.185925
v 2.447077 -2.382830 1.185925
v 2.272939 -2.462078 1.185925
v 0.000000 -2.500000 1.185925
v -1.223400 -2.500000 1.185925
v 1.244313 -2.500000 1.185925
v 2.272939 -2.462078 -1.159861
v 0.000000 -2.500000 -1.159861
v -1.223400 -2.500000 -1.159861
v 1.244313 -2.500000 -1.159861
v -2.208200 -2.458175 -1.159861
v -2.384959 -2.384958 -1.159861
v 2.447077 -2.382830 -1.159861
v -2.249848 -2.086458 2.261447
v 0.000521 -2.092844 2.269934
v -2.249848 -2.086458 -2.321567
v 2.276921 -2.082695 -2.290434
v 0.000521 -2.092844 -2.330055
v 2.312371 -2.086569 2.261447
v -2.258334 -2.088959 0.012324
v 2.321764 -2.089042 0.012324
v 2.154337 -1.969077 0.009226
v 2.112772 -1.963195 -2.125177
v 2.145632 -1.966786 2.093914
v 0.002802 -1.972601 2.101780
v -2.083042 -1.966682 2.093914
v -2.090908 -1.969001 0.009226
v -2.083042 -1.966682 -2.154034
v 0.002802 -1.972601 -2.161901
vt 0.299309 0.300648
vt 0.301600 0.182018
vt 0.301120 0.066150
vt 0.183001 0.065713
vt 0.068024 0.066150
vt 0.067590 0.182018
vt 0.068024 0.302252
vt 0.183001 0.302689
vt 0.320310 0.323461
vt 0.342307 0.329399
vt 0.344696 0.258149
vt 0.344696 0.181381
vt 0.323021 0.181590
vt 0.182710 0.325902
vt 0.182493 0.343040
vt 0.264972 0.343040
vt 0.330597 0.340968
vt 0.026695 0.027622
vt 0.024408 0.036932
vt 0.046683 0.043023
vt 0.036124 0.025363
vt 0.342331 0.027622
vt 0.332987 0.025363
vt 0.322453 0.043023
vt 0.344696 0.036932
vt 0.026695 0.340781
vt 0.036124 0.343040
vt 0.046683 0.325379
vt 0.024408 0.331470
vt 0.339942 0.338709
vt 0.182710 0.042501
vt 0.182493 0.025363
vt 0.336250 0.378427
vt 0.336250 0.449438
vt 0.265220 0.449288
vt 0.265220 0.378243
vt 0.180575 0.378024
vt 0.180575 0.449109
vt 0.094484 0.448928
vt 0.094484 0.377801
vt 0.336250 0.678729
vt 0.336250 0.605979
vt 0.349129 0.605991
vt 0.349129 0.678737
vt 0.336250 0.359993
vt 0.265220 0.359990
vt 0.094483 0.359984
vt 0.180575 0.359987
vt 0.011341 0.678548
vt 0.011342 0.605640
vt 0.024899 0.605652
vt 0.024899 0.678555
vt 0.180575 0.678642
vt 0.265220 0.678690
vt 0.265220 0.693236
vt 0.180575 0.693052
vt 0.094483 0.692864
vt 0.094483 0.678594
vt 0.349128 0.378452
vt 0.349129 0.359993
vt 0.011344 0.359982
vt 0.024900 0.359982
vt 0.024901 0.377621
vt 0.011344 0.377596
vt 0.349129 0.693273
vt 0.336250 0.693390
vt 0.011341 0.692921
vt 0.024899 0.692713
vt 0.024900 0.448781
vt 0.265220 0.527596
vt 0.336250 0.527709
vt 0.265220 0.605905
vt 0.094483 0.527326
vt 0.180575 0.527463
vt 0.180575 0.605816
vt 0.094483 0.605725
vt 0.349129 0.527725
vt 0.349129 0.449458
vt 0.024900 0.527216
vt 0.011343 0.527200
vt 0.011343 0.448761
vt 0.101401 0.025363
vt 0.101401 0.343040
vt 0.264972 0.025363
vt 0.344696 0.104612
vt 0.024408 0.104612
vt 0.024408 0.181381
vt 0.046170 0.181590
vt 0.024408 0.258149
vn 0.066551 0.995327 0.069971
vn 0.033523 0.999438 0.000019
vn 0.000018 0.999367 0.035571
vn -0.068152 0.995233 0.069759
vn -0.034232 0.999414 -0.000005
vn -0.068422 0.995372 -0.067481
vn -0.000035 0.999378 -0.035276
vn 0.065651 0.995623 -0.066527
vn -0.095885 -0.993710 0.057850
vn -0.098559 -0.995131 0.000000
vn -0.018887 -0.998013 0.060111
vn -0.018938 -0.999821 0.000000
vn 0.000000 -0.998177 0.060359
vn 0.000000 -1.000000 0.000000
vn 0.016640 -0.998051 0.060142
vn 0.016682 -0.999861 0.000000
vn -0.096073 -0.993908 -0.053999
vn -0.098559 -0.995131 0.000000
vn -0.382475 -0.923370 -0.033166
vn -0.382685 -0.923879 0.000000
vn -0.071958 -0.921483 0.381695
vn -0.017596 -0.923736 0.382624
vn 0.000000 -0.923880 0.382683
vn 0.015488 -0.923764 0.382649
vn 0.115711 -0.990649 -0.072291
vn 0.412985 -0.907480 -0.076964
vn 0.097663 -0.995023 -0.019760
vn 0.414101 -0.909933 -0.023276
vn 0.000000 -0.998411 -0.056361
vn -0.018893 -0.998245 -0.056127
vn 0.000000 -0.923880 -0.382683
vn -0.017596 -0.923736 -0.382624
vn 0.035978 -0.997743 -0.056705
vn 0.038322 -0.923201 -0.382402
vn -0.382443 -0.923292 0.035617
vn -0.333825 -0.881545 0.333825
vn 0.413952 -0.909602 0.035617
vn 0.363930 -0.869549 0.333826
vn 0.094242 -0.993883 0.057584
vn 0.069629 -0.921367 0.382408
vn -0.333825 -0.881545 -0.333824
vn -0.071958 -0.921483 -0.381695
vn 0.116082 -0.917166 -0.381224
vn 0.363930 -0.869549 -0.333825
vn 0.096959 -0.995288 0.000000
vn -0.018938 -0.999821 0.000000
vn -0.098559 -0.995131 0.000000
vn -0.018938 -0.999821 0.000000
vn 0.016682 -0.999861 0.000000
vn 0.000000 -1.000000 0.000000
vn 0.020934 -0.999771 -0.004523
vn 0.000000 -1.000000 0.000000
vn -0.382685 -0.923879 0.000000
vn -0.382685 -0.923879 0.000000
vn 0.096959 -0.995288 0.000000
vn 0.414214 -0.910180 0.000000
vn 0.414214 -0.910180 0.000000
vn 0.888724 0.458015 -0.019813
vn 0.783300 0.621481 -0.014242
vn 0.895763 0.444268 -0.015287
vn 0.802635 0.596469 -0.001530
vn 0.919511 0.393058 0.002097
vn 0.012912 0.576126 -0.817259
vn 0.015469 0.444599 -0.895596
vn 0.000796 0.566086 -0.824346
vn 0.000947 0.358036 -0.933707
vn -0.001500 0.355506 -0.934673
vn -0.910280 0.394635 0.125118
vn -0.801370 0.598158 0.003692
vn -0.911508 0.411154 0.010249
vn 0.005619 0.413422 0.910522
vn 0.003431 0.590489 0.807038
vn -0.124986 0.395022 0.910130
vn 0.113769 0.392572 0.912658
vn -0.003064 0.588482 0.808504
vn -0.005066 0.408999 0.912521
vn 0.910849 0.412590 0.011157
vn 0.800299 0.599587 0.004094
vn 0.908921 0.394280 0.135669
vn -0.124986 0.395024 -0.910129
vn 0.003431 0.590490 -0.807038
vn 0.005619 0.413423 -0.910522
vn -0.911477 0.411241 -0.009520
vn -0.802958 0.596026 -0.003503
vn -0.910280 0.394634 -0.125117
vn 0.889034 0.441968 -0.119513
vn 0.095837 0.439598 -0.893067
vn 0.000015 0.535745 0.844380
vn 0.000009 0.355809 0.934559
vn 0.001271 0.372689 0.927956
vn 0.001271 0.372689 -0.927955
vn -0.001099 0.372462 0.928047
vn 0.910317 0.413911 0.000000
vn -0.822220 0.569170 0.000002
vn -0.919003 0.394251 -0.000001
vn -0.911021 0.412359 0.000000
vn -0.911022 0.412357 0.000000
s 1
g bottom polySurface8 polySurface5 polySurface3 polySurface1 pCube1
usemtl lambert2SG
f 60/3/1 58/2/2 61/4/3
f 62/5/4 61/4/3 63/6/5
f 64/7/6 63/6/5 65/8/7
f 59/1/8 65/8/7 58/2/2
f 58/2/2 65/8/7 61/4/3
f 61/4/3 65/8/7 63/6/5
s 5
f 2/33/9 36/34/10 24/36/11
f 36/34/10 41/35/12 24/36/11
f 18/37/13 40/38/14 25/40/15
f 40/38/14 42/39/16 25/40/15
f 7/41/17 47/42/18 8/44/19
f 47/42/18 48/43/20 8/44/19
f 3/45/21 2/33/9 22/46/22
f 2/33/9 24/36/11 22/46/22
f 18/37/13 25/40/15 19/48/23
f 25/40/15 27/47/24 19/48/23
f 11/52/25 10/49/26 43/51/27
f 10/49/26 49/50/28 43/51/27
f 17/53/29 21/54/30 20/56/31
f 21/54/30 23/55/32 20/56/31
f 17/53/29 20/56/31 26/58/33
f 20/56/31 28/57/34 26/58/33
f 1/59/35 2/33/9 13/60/36
f 13/60/36 2/33/9 3/45/21
f 5/64/37 14/61/38 4/63/39
f 14/61/38 6/62/40 4/63/39
f 8/44/19 15/65/41 7/41/17
f 15/65/41 9/66/42 7/41/17
f 12/68/43 16/67/44 11/52/25
f 16/67/44 10/49/26 11/52/25
f 24/36/11 41/35/12 18/37/13
f 41/35/12 40/38/14 18/37/13
f 22/46/22 24/36/11 19/48/23
f 24/36/11 18/37/13 19/48/23
f 9/66/42 23/55/32 7/41/17
f 23/55/32 21/54/30 7/41/17
f 25/40/15 42/39/16 4/63/39
f 42/39/16 39/69/45 4/63/39
f 6/62/40 27/47/24 4/63/39
f 27/47/24 25/40/15 4/63/39
f 11/52/25 26/58/33 12/68/43
f 26/58/33 28/57/34 12/68/43
f 34/70/46 30/71/47 45/72/48
f 30/71/47 47/42/18 45/72/48
f 35/73/49 33/74/50 46/76/51
f 33/74/50 44/75/52 46/76/51
f 31/77/53 30/71/47 37/78/54
f 30/71/47 36/34/10 37/78/54
f 29/79/55 32/80/56 39/69/45
f 32/80/56 38/81/57 39/69/45
f 33/74/50 34/70/46 44/75/52
f 34/70/46 45/72/48 44/75/52
f 29/79/55 35/73/49 43/51/27
f 35/73/49 46/76/51 43/51/27
f 41/35/12 36/34/10 34/70/46
f 36/34/10 30/71/47 34/70/46
f 42/39/16 40/38/14 35/73/49
f 40/38/14 33/74/50 35/73/49
f 40/38/14 41/35/12 33/74/50
f 41/35/12 34/70/46 33/74/50
f 39/69/45 42/39/16 29/79/55
f 42/39/16 35/73/49 29/79/55
f 37/78/54 36/34/10 1/59/35
f 36/34/10 2/33/9 1/59/35
f 39/69/45 38/81/57 4/63/39
f 38/81/57 5/64/37 4/63/39
f 48/43/20 47/42/18 31/77/53
f 47/42/18 30/71/47 31/77/53
f 43/51/27 49/50/28 29/79/55
f 49/50/28 32/80/56 29/79/55
f 45/72/48 47/42/18 21/54/30
f 47/42/18 7/41/17 21/54/30
f 46/76/51 44/75/52 26/58/33
f 44/75/52 17/53/29 26/58/33
f 44/75/52 45/72/48 17/53/29
f 45/72/48 21/54/30 17/53/29
f 43/51/27 46/76/51 11/52/25
f 46/76/51 26/58/33 11/52/25
s 1
f 10/10/58 53/9/59 49/11/60
f 53/9/59 57/13/61 49/11/60
f 49/11/60 57/13/61 32/12/62
f 53/9/63 12/17/64 54/14/65
f 12/17/64 28/16/66 54/14/65
f 54/14/65 28/16/66 20/15/67
f 13/18/68 50/20/69 1/19/70
f 3/21/71 50/20/72 13/18/73
f 14/22/74 55/24/75 6/23/76
f 5/25/77 55/24/78 14/22/79
f 15/26/80 52/28/81 9/27/82
f 8/29/83 52/28/84 15/26/85
f 16/30/86 53/9/59 10/10/58
f 12/17/64 53/9/63 16/30/87
f 51/31/88 50/20/72 19/32/89
f 19/32/89 50/20/72 22/82/90
f 50/20/72 3/21/71 22/82/90
f 54/14/65 20/15/67 52/28/81
f 20/15/67 23/83/91 52/28/81
f 52/28/81 23/83/91 9/27/82
f 51/31/88 19/32/89 55/24/75
f 19/32/89 27/84/92 55/24/75
f 55/24/75 27/84/92 6/23/76
f 57/13/61 55/24/78 32/12/62
f 32/12/62 55/24/78 38/85/93
f 55/24/78 5/25/77 38/85/93
f 56/88/94 31/87/95 50/20/69
f 31/87/95 37/86/96 50/20/69
f 50/20/69 37/86/96 1/19/70
f 56/88/94 52/28/84 31/87/95
f 31/87/95 52/28/84 48/89/97
f 52/28/84 8/29/83 48/89/97
f 53/9/59 59/1/8 57/13/61
f 59/1/8 58/2/2 57/13/61
f 55/24/78 57/13/61 60/3/1
f 57/13/61 58/2/2 60/3/1
f 55/24/75 60/3/1 51/31/88
f 60/3/1 61/4/3 51/31/88
f 50/20/72 51/31/88 62/5/4
f 51/31/88 61/4/3 62/5/4
f 50/20/69 62/5/4 56/88/94
f 62/5/4 63/6/5 56/88/94
f 52/28/84 56/88/94 64/7/6
f 56/88/94 63/6/5 64/7/6
f 52/28/81 64/7/6 54/14/65
f 64/7/6 65/8/7 54/14/65
f 53/9/63 54/14/65 59/1/8
f 54/14/65 65/8/7 59/1/8
