# This file uses centimeters as units for non-parametric coordinates.

mtllib side_front.mtl
g default
v -2.208200 -2.208200 2.469940
v 2.264346 -2.212251 2.469940
v -2.250025 2.250025 2.500000
v 2.250025 2.208200 2.500000
v 0.000000 2.174800 2.464330
v 0.000000 -2.250025 2.469940
v -1.223400 -2.250025 2.469940
v -1.223400 2.231698 2.500000
v 1.244313 2.187287 2.500000
v 1.244313 -2.250025 2.469940
v 2.250025 -0.041826 2.500000
v -2.248503 -0.041826 2.500000
v -0.000000 -0.041826 2.500000
v -1.223400 -0.041826 2.500000
v 1.244313 -0.041826 2.500000
v -2.229112 1.192031 2.530060
v -0.000000 1.192031 2.530060
v -1.223400 1.192031 2.530060
v 2.250025 1.192031 2.530060
v 1.244313 1.192031 2.530060
v 2.227258 -1.133982 2.469940
v 1.244313 -1.129292 2.469940
v -2.208200 -1.129292 2.469940
v 0.000000 -1.129292 2.469940
v -1.223400 -1.129292 2.469940
v -1.223400 -2.426784 2.396724
v 0.000000 -2.426784 2.396724
v 1.244313 -2.426784 2.396724
v -2.426784 2.250025 2.426784
v -2.405871 1.192031 2.456844
v 2.426784 1.192031 2.456844
v 2.426784 2.208200 2.426784
v -1.223400 2.408457 2.426784
v -2.250025 2.426784 2.426784
v 1.244313 2.364046 2.426784
v 0.000000 2.351559 2.391113
v -2.350444 -2.350444 2.362209
v -2.208200 -2.384959 2.396724
v -2.384959 -2.208200 2.396724
v 2.411397 -2.349522 2.362209
v 2.441001 -2.206175 2.396724
v 2.270422 -2.388906 2.396724
v -2.392270 2.392270 2.392270
v 2.392270 2.350444 2.392270
v 2.250025 2.384959 2.426784
v -2.425262 -0.041826 2.426784
v -2.384959 -1.129292 2.396724
v 2.403913 -1.127905 2.396724
v 2.426784 -0.041826 2.426784
v 0.000000 -2.338405 2.207834
v -2.329776 2.329776 2.210962
v 2.329776 2.287950 2.210962
v 0.000000 2.263180 2.202225
v -2.287950 -2.287950 2.180902
v 2.346792 -2.289213 2.180902
v -2.336883 -0.041826 2.237895
v 2.338405 -0.041826 2.237895
v 2.184956 -0.039631 2.102599
v 2.176895 2.153850 2.075666
v 0.000326 2.130528 2.066929
v -2.176243 2.193228 2.075666
v -2.182883 -0.039631 2.102599
v -2.137168 -2.154354 2.045606
v 0.000326 -2.201857 2.072538
v 2.192792 -2.155543 2.045606
vt 0.303363 0.300314
vt 0.180657 0.298943
vt 0.303817 0.171382
vt 0.057952 0.302629
vt 0.057578 0.171382
vt 0.180657 0.044287
vt 0.060155 0.047079
vt 0.304259 0.047009
vt 0.180627 0.030671
vt 0.180613 0.017640
vt 0.257344 0.017640
vt 0.320620 0.020077
vt 0.318319 0.033680
vt 0.043934 0.316244
vt 0.030963 0.318461
vt 0.032252 0.250409
vt 0.031057 0.171045
vt 0.043517 0.171163
vt 0.035670 0.022551
vt 0.044442 0.020331
vt 0.046388 0.033758
vt 0.033542 0.031700
vt 0.329314 0.022610
vt 0.331139 0.031830
vt 0.033091 0.327610
vt 0.041863 0.329830
vt 0.328134 0.324920
vt 0.319363 0.327140
vt 0.317321 0.313686
vt 0.330263 0.315770
vt 0.105171 0.017640
vt 0.180627 0.312170
vt 0.977385 0.182939
vt 0.977385 0.269959
vt 0.904682 0.269954
vt 0.904682 0.182928
vt 0.904682 0.097365
vt 0.977386 0.097383
vt 0.994262 0.097425
vt 0.994254 0.182967
vt 0.994246 0.269970
vt 0.685461 0.007503
vt 0.754095 0.007503
vt 0.754095 0.025518
vt 0.685461 0.025497
vt 0.685461 0.340291
vt 0.754094 0.340291
vt 0.754094 0.356452
vt 0.685461 0.356452
vt 0.668485 0.025471
vt 0.685461 0.097313
vt 0.668485 0.097293
vt 0.685461 0.182894
vt 0.685461 0.269938
vt 0.668485 0.269933
vt 0.668485 0.182881
vt 0.994269 0.025642
vt 0.977386 0.025587
vt 0.994270 0.007508
vt 0.977386 0.007505
vt 0.994236 0.356452
vt 0.977385 0.356452
vt 0.977385 0.340292
vt 0.994239 0.340291
vt 0.668485 0.007502
vt 0.668485 0.340292
vt 0.668485 0.356452
vt 0.904682 0.025564
vt 0.754095 0.269943
vt 0.834136 0.182917
vt 0.834136 0.269949
vt 0.754095 0.182905
vt 0.834137 0.097348
vt 0.754095 0.097329
vt 0.834137 0.025543
vt 0.834137 0.007504
vt 0.904682 0.007505
vt 0.834136 0.356452
vt 0.834136 0.340292
vt 0.904682 0.340292
vt 0.904682 0.356452
vt 0.180613 0.324992
vt 0.105171 0.328651
vt 0.257344 0.325795
vt 0.033542 0.101097
vt 0.317827 0.171163
vt 0.330263 0.171045
vt 0.330263 0.250409
vt 0.328852 0.101186
vn 0.086133 -0.011850 -0.996213
vn 0.038305 0.001904 -0.999264
vn -0.000066 -0.014975 -0.999888
vn -0.087469 -0.011689 -0.996099
vn -0.039192 0.001215 -0.999231
vn -0.000001 0.018080 -0.999837
vn -0.069798 0.025218 -0.997242
vn 0.069900 0.026985 -0.997189
vn 0.000000 -0.056339 0.998412
vn 0.000970 -0.057455 0.998348
vn 0.000000 -0.013612 0.999907
vn -0.000029 -0.013635 0.999907
vn -0.001104 -0.057474 0.998346
vn 0.000000 -0.382683 0.923880
vn -0.007147 -0.382674 0.923856
vn 0.006308 -0.382676 0.923861
vn -0.382166 0.052029 0.922628
vn -0.382684 -0.000225 0.923880
vn -0.058510 0.081002 0.994995
vn -0.059981 0.000004 0.998200
vn 0.381983 0.060506 0.922187
vn 0.058168 0.084571 0.994718
vn 0.382684 0.000016 0.923879
vn 0.061581 -0.000003 0.998102
vn -0.030140 0.382511 0.923459
vn 0.027140 0.382542 0.923540
vn 0.018343 0.085304 0.996186
vn 0.007283 0.382676 0.923854
vn 0.001827 0.103178 0.994661
vn -0.020262 0.382605 0.923690
vn -0.016797 0.086990 0.996068
vn -0.050731 -0.382190 0.922690
vn -0.060325 -0.052552 0.996794
vn -0.333824 -0.333824 0.881546
vn -0.382459 -0.034298 0.923336
vn 0.049973 -0.380955 0.923242
vn 0.345103 -0.322151 0.881546
vn 0.060214 -0.053271 0.996763
vn 0.383412 -0.021130 0.923336
vn -0.333824 0.333824 0.881546
vn 0.029883 0.382512 0.923467
vn 0.333824 0.333824 0.881546
vn -0.000000 -0.013673 0.999907
vn -0.061360 -0.015217 0.998000
vn -0.004111 0.003779 0.999984
vn 0.000000 -0.025891 0.999665
vn -0.000013 -0.025874 0.999665
vn 0.000000 0.016090 0.999871
vn 0.000000 -0.025887 0.999665
vn 0.004380 0.003740 0.999983
vn -0.062430 -0.026392 0.997700
vn -0.382605 -0.020083 0.923694
vn -0.382540 -0.027366 0.923534
vn 0.382536 -0.027705 0.923525
vn 0.062293 -0.026402 0.997709
vn 0.383100 -0.010567 0.923646
vn 0.061222 -0.013364 0.998035
vn -0.000230 -0.826262 -0.563286
vn 0.020030 -0.810454 -0.585460
vn -0.000221 -0.903120 -0.429388
vn 0.001759 -0.847302 -0.531108
vn 0.041442 -0.912550 -0.406860
vn -0.806247 -0.003309 -0.591570
vn -0.909148 -0.004971 -0.416444
vn -0.791815 -0.008885 -0.610696
vn -0.975678 0.018042 -0.218465
vn -0.909046 -0.020537 -0.416190
vn -0.135209 -0.921448 -0.364214
vn -0.021002 -0.810709 -0.585072
vn -0.044763 -0.917265 -0.395754
vn -0.913110 -0.007527 -0.407645
vn -0.790138 -0.001837 -0.612926
vn -0.921449 -0.135208 -0.364212
vn 0.925552 -0.103457 -0.364211
vn 0.791990 0.020990 -0.610174
vn 0.912829 0.023866 -0.407644
vn 0.166805 -0.916257 -0.364211
vn -0.921448 0.135207 -0.364215
vn 0.007404 0.911048 -0.412235
vn 0.014419 0.819640 -0.572697
vn -0.135209 0.921449 -0.364213
vn 0.135209 0.921449 -0.364213
vn -0.005916 0.821910 -0.569587
vn -0.009741 0.910702 -0.412948
vn 0.911594 -0.003602 -0.411077
vn 0.789188 -0.003590 -0.614141
vn 0.921449 0.135207 -0.364213
vn -0.002032 -0.845547 -0.533898
vn 0.007464 0.828419 -0.560059
vn 0.008502 0.906206 -0.422750
vn 0.027070 0.886491 -0.461953
vn -0.000919 0.941638 -0.336626
vn -0.956050 -0.025640 -0.292081
vn 0.806322 0.007066 -0.591435
vn 0.908213 0.005930 -0.418466
vn 0.940773 0.007226 -0.338960
vn 0.980940 -0.012209 -0.193930
vn -0.004947 0.713057 -0.701089
vn 0.006401 0.714044 -0.700072
vn 0.017776 0.713754 -0.700170
vn -0.007260 -0.707337 -0.706840
vn -0.000189 -0.703844 -0.710355
vn 0.006699 -0.707384 -0.706797
s 1
g front pCube1
usemtl lambert2SG
f 59/1/1 58/3/2 60/2/3
f 61/4/4 60/2/3 62/5/5
f 60/2/3 58/3/2 62/5/5
f 58/3/2 64/6/6 62/5/5
f 62/5/5 64/6/6 63/7/7
f 58/3/2 65/8/8 64/6/6
s 2
f 6/33/9 10/34/10 24/36/11
f 10/34/10 22/35/12 24/36/11
f 6/33/9 7/38/13 27/40/14
f 7/38/13 26/39/15 27/40/14
f 6/33/9 27/40/14 10/34/10
f 27/40/14 28/41/16 10/34/10
f 29/42/17 30/43/18 3/45/19
f 30/43/18 16/44/20 3/45/19
f 32/49/21 4/46/22 31/48/23
f 4/46/22 19/47/24 31/48/23
f 34/50/25 3/45/19 33/52/26
f 3/45/19 8/51/27 33/52/26
f 36/56/28 5/53/29 35/55/30
f 5/53/29 9/54/31 35/55/30
f 38/57/32 1/58/33 37/59/34
f 37/59/34 1/58/33 39/60/35
f 42/64/36 40/61/37 2/63/38
f 40/61/37 41/62/39 2/63/38
f 34/50/25 43/65/40 3/45/19
f 43/65/40 29/42/17 3/45/19
f 45/66/41 4/46/22 44/67/42
f 44/67/42 4/46/22 32/49/21
f 7/38/13 25/37/43 1/58/33
f 25/37/43 23/68/44 1/58/33
f 26/39/15 7/38/13 38/57/32
f 7/38/13 1/58/33 38/57/32
f 33/52/26 8/51/27 36/56/28
f 8/51/27 5/53/29 36/56/28
f 4/46/22 9/54/31 19/47/24
f 9/54/31 20/69/45 19/47/24
f 2/63/38 10/34/10 42/64/36
f 10/34/10 28/41/16 42/64/36
f 45/66/41 35/55/30 4/46/22
f 35/55/30 9/54/31 4/46/22
f 13/70/46 15/71/47 17/72/48
f 15/71/47 20/69/45 17/72/48
f 14/73/49 13/70/46 18/74/50
f 13/70/46 17/72/48 18/74/50
f 23/68/44 12/75/51 47/77/52
f 12/75/51 46/76/53 47/77/52
f 49/78/54 11/79/55 48/81/56
f 11/79/55 21/80/57 48/81/56
f 12/75/51 14/73/49 16/44/20
f 14/73/49 18/74/50 16/44/20
f 11/79/55 15/71/47 21/80/57
f 15/71/47 22/35/12 21/80/57
f 16/44/20 30/43/18 12/75/51
f 30/43/18 46/76/53 12/75/51
f 49/78/54 31/48/23 11/79/55
f 31/48/23 19/47/24 11/79/55
f 19/47/24 20/69/45 11/79/55
f 20/69/45 15/71/47 11/79/55
f 17/72/48 20/69/45 5/53/29
f 20/69/45 9/54/31 5/53/29
f 8/51/27 18/74/50 5/53/29
f 18/74/50 17/72/48 5/53/29
f 3/45/19 16/44/20 8/51/27
f 16/44/20 18/74/50 8/51/27
f 24/36/11 22/35/12 13/70/46
f 22/35/12 15/71/47 13/70/46
f 14/73/49 25/37/43 13/70/46
f 13/70/46 25/37/43 24/36/11
f 25/37/43 7/38/13 24/36/11
f 24/36/11 7/38/13 6/33/9
f 12/75/51 23/68/44 14/73/49
f 23/68/44 25/37/43 14/73/49
f 23/68/44 47/77/52 1/58/33
f 47/77/52 39/60/35 1/58/33
f 48/81/56 21/80/57 41/62/39
f 21/80/57 2/63/38 41/62/39
f 21/80/57 22/35/12 2/63/38
f 22/35/12 10/34/10 2/63/38
s 15
f 50/9/58 55/13/59 27/10/60
f 27/10/60 55/13/59 28/11/61
f 28/11/61 55/13/59 42/12/62
s 1
f 56/18/63 46/17/64 51/14/65
f 46/17/64 30/16/66 51/14/65
f 51/14/65 30/16/66 29/15/67
s 15
f 37/19/68 54/21/69 38/20/70
s 1
f 39/22/71 54/21/72 37/19/73
f 40/23/74 55/13/75 41/24/76
s 15
f 42/12/62 55/13/59 40/23/77
s 1
f 43/25/78 51/14/65 29/15/67
s 20
f 34/26/79 51/14/80 43/25/81
f 44/27/82 52/29/83 45/28/84
s 1
f 32/30/85 52/29/86 44/27/87
s 15
f 50/9/58 27/10/60 54/21/69
f 27/10/60 26/31/88 54/21/69
f 54/21/69 26/31/88 38/20/70
s 20
f 53/32/89 51/14/80 36/82/90
f 36/82/90 51/14/80 33/83/91
f 51/14/80 34/26/79 33/83/91
f 53/32/89 36/82/90 52/29/83
f 36/82/90 35/84/92 52/29/83
f 52/29/83 35/84/92 45/28/84
s 1
f 56/18/63 54/21/72 46/17/64
f 46/17/64 54/21/72 47/85/93
f 54/21/72 39/22/71 47/85/93
f 57/86/94 52/29/86 49/87/95
f 49/87/95 52/29/86 31/88/96
f 52/29/86 32/30/85 31/88/96
f 57/86/94 49/87/95 55/13/75
f 49/87/95 48/89/97 55/13/75
f 55/13/75 48/89/97 41/24/76
f 52/29/86 57/86/94 59/1/1
f 57/86/94 58/3/2 59/1/1
s 20
f 52/29/83 59/1/98 53/32/89
f 59/1/98 60/2/99 53/32/89
f 51/14/80 53/32/89 61/4/100
f 53/32/89 60/2/99 61/4/100
s 1
f 51/14/65 61/4/4 56/18/63
f 61/4/4 62/5/5 56/18/63
f 54/21/72 56/18/63 63/7/7
f 56/18/63 62/5/5 63/7/7
s 15
f 54/21/69 63/7/101 50/9/58
f 63/7/101 64/6/102 50/9/58
f 55/13/59 50/9/58 65/8/103
f 50/9/58 64/6/102 65/8/103
s 1
f 55/13/75 65/8/8 57/86/94
f 65/8/8 58/3/2 57/86/94
